<svg width="72" height="24" viewBox="0 0 72 24" fill="none" xmlns="http://www.w3.org/2000/svg">
<rect width="72" height="24" fill="#003754"/>
<path d="M18.0216 7.48459V16.5248C18.0216 16.9701 17.7446 17.3664 17.3273 17.5137L14.2344 18.9654L14.5149 15.1607V8.84869L14.2344 5.04395L17.3273 6.49571C17.7446 6.64299 18.0216 7.03924 18.0216 7.48459Z" fill="#29B6F6"/>
<path d="M5.74834 15.4747L14.515 8.84844V5.46555C14.515 5.04545 13.9953 4.84908 13.7173 5.16398L4.22575 13.8416C3.91015 14.1327 3.92803 14.6366 4.26327 14.9048C4.26327 14.9048 4.72755 15.3368 4.89552 15.4568C5.15361 15.6409 5.49271 15.6619 5.74834 15.4747Z" fill="#0277BD"/>
<path d="M5.74834 8.53451L14.515 15.1607V18.5436C14.515 18.9637 13.9953 19.1601 13.7173 18.8452L4.22575 10.1676C3.91015 9.87651 3.92803 9.3726 4.26327 9.10434C4.26327 9.10434 4.72755 8.67232 4.89552 8.55239C5.15361 8.36829 5.49271 8.34725 5.74834 8.53451Z" fill="#0288D1"/>
<path d="M24.4347 8.72727L26.4588 14.6506H26.5405L28.5646 8.72727H29.7507L27.1335 16H25.8658L23.2486 8.72727H24.4347ZM34.7676 10.6378C34.7297 10.3016 34.5734 10.0412 34.2988 9.85653C34.0242 9.66951 33.6786 9.57599 33.2619 9.57599C32.9636 9.57599 32.7056 9.62334 32.4877 9.71804C32.2699 9.81037 32.1007 9.93821 31.9799 10.1016C31.8616 10.2625 31.8024 10.446 31.8024 10.652C31.8024 10.8248 31.8426 10.974 31.9231 11.0994C32.006 11.2249 32.1137 11.3303 32.2463 11.4155C32.3812 11.4983 32.5256 11.5682 32.6795 11.625C32.8334 11.6795 32.9814 11.7244 33.1234 11.7599L33.8336 11.9446C34.0656 12.0014 34.3036 12.0784 34.5474 12.1754C34.7913 12.2725 35.0173 12.4003 35.2257 12.5589C35.434 12.7176 35.6021 12.9141 35.7299 13.1484C35.8601 13.3828 35.9252 13.6634 35.9252 13.9901C35.9252 14.402 35.8187 14.7678 35.6056 15.0874C35.3949 15.407 35.0884 15.6591 34.6859 15.8438C34.2858 16.0284 33.8017 16.1207 33.2335 16.1207C32.689 16.1207 32.2179 16.0343 31.8201 15.8615C31.4224 15.6887 31.1111 15.4437 30.8862 15.1264C30.6613 14.8068 30.537 14.428 30.5133 13.9901H31.6142C31.6355 14.2528 31.7207 14.4718 31.8699 14.647C32.0214 14.8198 32.2143 14.9489 32.4487 15.0341C32.6854 15.117 32.9447 15.1584 33.2264 15.1584C33.5365 15.1584 33.8123 15.1098 34.0538 15.0128C34.2976 14.9134 34.4894 14.776 34.6291 14.6009C34.7688 14.4233 34.8386 14.2161 34.8386 13.9794C34.8386 13.764 34.777 13.5876 34.6539 13.4503C34.5332 13.313 34.3687 13.1993 34.1603 13.1094C33.9544 13.0194 33.7212 12.9401 33.4608 12.8714L32.6014 12.6371C32.019 12.4785 31.5574 12.2453 31.2164 11.9375C30.8779 11.6297 30.7086 11.2225 30.7086 10.7159C30.7086 10.2969 30.8223 9.93111 31.0495 9.61861C31.2768 9.30611 31.5846 9.06345 31.9728 8.89062C32.3611 8.71544 32.7991 8.62784 33.2868 8.62784C33.7792 8.62784 34.2136 8.71425 34.59 8.88707C34.9688 9.0599 35.2671 9.29782 35.4849 9.60085C35.7027 9.90151 35.8163 10.2472 35.8258 10.6378H34.7676ZM45.9235 11.0923H44.8155C44.7729 10.8556 44.6936 10.6473 44.5776 10.4673C44.4616 10.2874 44.3195 10.1347 44.1515 10.0092C43.9834 9.88376 43.7952 9.78906 43.5868 9.72514C43.3809 9.66122 43.1619 9.62926 42.9299 9.62926C42.5108 9.62926 42.1356 9.73461 41.8042 9.94531C41.4751 10.156 41.2147 10.465 41.0229 10.8722C40.8335 11.2794 40.7388 11.7765 40.7388 12.3636C40.7388 12.9555 40.8335 13.455 41.0229 13.8622C41.2147 14.2694 41.4763 14.5772 41.8077 14.7855C42.1391 14.9938 42.512 15.098 42.9263 15.098C43.156 15.098 43.3738 15.0672 43.5797 15.0057C43.7881 14.9418 43.9763 14.8482 44.1444 14.7251C44.3124 14.602 44.4545 14.4517 44.5705 14.2741C44.6889 14.0942 44.7705 13.8883 44.8155 13.6562L45.9235 13.6598C45.8643 14.0173 45.7495 14.3464 45.579 14.647C45.4109 14.9453 45.1943 15.2034 44.9292 15.4212C44.6664 15.6366 44.3657 15.8035 44.0272 15.9219C43.6886 16.0402 43.3193 16.0994 42.9192 16.0994C42.2895 16.0994 41.7284 15.9503 41.236 15.652C40.7435 15.3513 40.3553 14.9216 40.0712 14.3629C39.7895 13.8042 39.6486 13.1378 39.6486 12.3636C39.6486 11.5871 39.7907 10.9207 40.0748 10.3643C40.3588 9.80563 40.7471 9.37713 41.2395 9.07884C41.7319 8.77817 42.2918 8.62784 42.9192 8.62784C43.3051 8.62784 43.665 8.68348 43.9988 8.79474C44.3349 8.90365 44.6368 9.06463 44.9043 9.2777C45.1718 9.4884 45.3932 9.74645 45.5684 10.0518C45.7435 10.3549 45.8619 10.7017 45.9235 11.0923ZM49.4489 16.1101C48.9375 16.1101 48.4912 15.9929 48.1101 15.7585C47.7289 15.5241 47.433 15.1963 47.2223 14.7749C47.0116 14.3535 46.9062 13.861 46.9062 13.2976C46.9062 12.7318 47.0116 12.237 47.2223 11.8132C47.433 11.3894 47.7289 11.0604 48.1101 10.826C48.4912 10.5916 48.9375 10.4744 49.4489 10.4744C49.9602 10.4744 50.4065 10.5916 50.7876 10.826C51.1688 11.0604 51.4647 11.3894 51.6754 11.8132C51.8861 12.237 51.9915 12.7318 51.9915 13.2976C51.9915 13.861 51.8861 14.3535 51.6754 14.7749C51.4647 15.1963 51.1688 15.5241 50.7876 15.7585C50.4065 15.9929 49.9602 16.1101 49.4489 16.1101ZM49.4524 15.2188C49.7839 15.2188 50.0585 15.1312 50.2763 14.956C50.4941 14.7808 50.6551 14.5476 50.7592 14.2564C50.8658 13.9652 50.919 13.6444 50.919 13.294C50.919 12.946 50.8658 12.6264 50.7592 12.3352C50.6551 12.0417 50.4941 11.8061 50.2763 11.6286C50.0585 11.451 49.7839 11.3622 49.4524 11.3622C49.1186 11.3622 48.8416 11.451 48.6214 11.6286C48.4036 11.8061 48.2415 12.0417 48.1349 12.3352C48.0308 12.6264 47.9787 12.946 47.9787 13.294C47.9787 13.6444 48.0308 13.9652 48.1349 14.2564C48.2415 14.5476 48.4036 14.7808 48.6214 14.956C48.8416 15.1312 49.1186 15.2188 49.4524 15.2188ZM55.2186 16.1065C54.7782 16.1065 54.3852 15.9941 54.0396 15.7692C53.6963 15.5419 53.4264 15.2187 53.2299 14.7997C53.0358 14.3783 52.9387 13.8729 52.9387 13.2834C52.9387 12.6939 53.037 12.1896 53.2335 11.7706C53.4324 11.3516 53.7046 11.0308 54.0502 10.8082C54.3959 10.5857 54.7877 10.4744 55.2257 10.4744C55.5642 10.4744 55.8365 10.5312 56.0424 10.6449C56.2508 10.7562 56.4118 10.8864 56.5254 11.0355C56.6414 11.1847 56.7314 11.3161 56.7953 11.4297H56.8592V8.72727H57.921V16H56.8841V15.1513H56.7953C56.7314 15.2673 56.639 15.3999 56.5183 15.549C56.3999 15.6982 56.2366 15.8284 56.0282 15.9396C55.8199 16.0509 55.55 16.1065 55.2186 16.1065ZM55.4529 15.201C55.7583 15.201 56.0164 15.1205 56.2271 14.9595C56.4402 14.7962 56.6011 14.5701 56.71 14.2812C56.8213 13.9924 56.877 13.6562 56.877 13.2727C56.877 12.8939 56.8225 12.5625 56.7136 12.2784C56.6047 11.9943 56.4449 11.773 56.2342 11.6143C56.0235 11.4557 55.7631 11.3764 55.4529 11.3764C55.1333 11.3764 54.867 11.4593 54.6539 11.625C54.4409 11.7907 54.2799 12.0168 54.171 12.3033C54.0645 12.5897 54.0112 12.9129 54.0112 13.2727C54.0112 13.6373 54.0656 13.9652 54.1745 14.2564C54.2834 14.5476 54.4444 14.7784 54.6575 14.9489C54.8729 15.117 55.1381 15.201 55.4529 15.201ZM61.7873 16.1101C61.2499 16.1101 60.7871 15.9953 60.3988 15.7656C60.0129 15.5336 59.7146 15.2081 59.5039 14.7891C59.2956 14.3677 59.1914 13.8741 59.1914 13.3082C59.1914 12.7495 59.2956 12.2571 59.5039 11.831C59.7146 11.4048 60.0082 11.0722 60.3846 10.8331C60.7634 10.594 61.2061 10.4744 61.7127 10.4744C62.0205 10.4744 62.3188 10.5253 62.6076 10.6271C62.8964 10.7289 63.1557 10.8887 63.3853 11.1065C63.6149 11.3243 63.796 11.6072 63.9286 11.9553C64.0612 12.3009 64.1275 12.7211 64.1275 13.2159V13.5923H59.7915V12.7969H63.087C63.087 12.5175 63.0302 12.2701 62.9165 12.0547C62.8029 11.8369 62.6431 11.6652 62.4371 11.5398C62.2335 11.4143 61.9944 11.3516 61.7198 11.3516C61.4215 11.3516 61.1611 11.425 60.9386 11.5717C60.7184 11.7161 60.5479 11.9055 60.4272 12.1399C60.3088 12.3719 60.2496 12.6241 60.2496 12.8963V13.5178C60.2496 13.8823 60.3136 14.1925 60.4414 14.4482C60.5716 14.7038 60.7527 14.8991 60.9847 15.0341C61.2167 15.1667 61.4878 15.233 61.7979 15.233C61.9992 15.233 62.1826 15.2045 62.3484 15.1477C62.5141 15.0885 62.6573 15.0009 62.7781 14.8849C62.8988 14.7689 62.9911 14.6257 63.055 14.4553L64.06 14.6364C63.9795 14.9323 63.8351 15.1915 63.6268 15.4141C63.4208 15.6342 63.1616 15.8059 62.8491 15.929C62.5389 16.0497 62.185 16.1101 61.7873 16.1101Z" fill="white"/>
</svg>
