<svg width="72" height="24" viewBox="0 0 72 24" fill="none" xmlns="http://www.w3.org/2000/svg">
<rect width="72" height="24" fill="#0D80B3"/>
<path d="M26.4403 9.67188V8.72727H32.0689V9.67188H29.7997V16H28.706V9.67188H26.4403ZM34.0726 16.1207C33.727 16.1207 33.4145 16.0568 33.1351 15.929C32.8558 15.7988 32.6344 15.6106 32.4711 15.3643C32.3101 15.1181 32.2296 14.8163 32.2296 14.4588C32.2296 14.151 32.2888 13.8977 32.4071 13.6989C32.5255 13.5 32.6853 13.3426 32.8865 13.2266C33.0878 13.1106 33.3127 13.023 33.5613 12.9638C33.8098 12.9046 34.0632 12.8596 34.3212 12.8288C34.6479 12.791 34.9131 12.7602 35.1167 12.7365C35.3203 12.7105 35.4682 12.669 35.5605 12.6122C35.6529 12.5554 35.699 12.4631 35.699 12.3352V12.3104C35.699 12.0002 35.6114 11.7599 35.4363 11.5895C35.2634 11.419 35.0054 11.3338 34.6621 11.3338C34.3046 11.3338 34.0229 11.4131 33.8169 11.5717C33.6133 11.728 33.4725 11.902 33.3944 12.0938L32.3965 11.8665C32.5149 11.535 32.6877 11.2675 32.915 11.0639C33.1446 10.858 33.4086 10.7088 33.7069 10.6165C34.0051 10.5218 34.3188 10.4744 34.6479 10.4744C34.8657 10.4744 35.0965 10.5005 35.3404 10.5526C35.5866 10.6023 35.8162 10.6946 36.0293 10.8295C36.2447 10.9645 36.4211 11.1574 36.5584 11.4084C36.6957 11.657 36.7644 11.9801 36.7644 12.3778V16H35.7275V15.2543H35.6848C35.6162 15.3916 35.5132 15.5265 35.3759 15.6591C35.2386 15.7917 35.0622 15.9018 34.8468 15.9893C34.6313 16.0769 34.3733 16.1207 34.0726 16.1207ZM34.3034 15.2685C34.597 15.2685 34.848 15.2105 35.0563 15.0945C35.267 14.9785 35.4268 14.8269 35.5357 14.6399C35.647 14.4505 35.7026 14.2481 35.7026 14.0327V13.3295C35.6647 13.3674 35.5913 13.4029 35.4824 13.4361C35.3759 13.4669 35.254 13.4941 35.1167 13.5178C34.9793 13.5391 34.8456 13.5592 34.7154 13.5781C34.5852 13.5947 34.4763 13.6089 34.3887 13.6207C34.1827 13.6468 33.9945 13.6906 33.824 13.7521C33.656 13.8137 33.521 13.9025 33.4192 14.0185C33.3198 14.1321 33.2701 14.2836 33.2701 14.473C33.2701 14.7358 33.3671 14.9347 33.5613 15.0696C33.7554 15.2022 34.0028 15.2685 34.3034 15.2685ZM38.1786 16V10.5455H39.2404V16H38.1786ZM38.7148 9.70384C38.5302 9.70384 38.3716 9.64228 38.239 9.51918C38.1088 9.3937 38.0437 9.24455 38.0437 9.07173C38.0437 8.89654 38.1088 8.7474 38.239 8.62429C38.3716 8.49882 38.5302 8.43608 38.7148 8.43608C38.8995 8.43608 39.0569 8.49882 39.1871 8.62429C39.3197 8.7474 39.386 8.89654 39.386 9.07173C39.386 9.24455 39.3197 9.3937 39.1871 9.51918C39.0569 9.64228 38.8995 9.70384 38.7148 9.70384ZM41.7306 8.72727V16H40.6689V8.72727H41.7306ZM44.3416 16L42.7365 10.5455H43.8338L44.9027 14.5511H44.956L46.0284 10.5455H47.1257L48.1911 14.5334H48.2443L49.3061 10.5455H50.4034L48.8018 16H47.7188L46.6108 12.0618H46.5291L45.4212 16H44.3416ZM51.411 16V10.5455H52.4728V16H51.411ZM51.9473 9.70384C51.7626 9.70384 51.604 9.64228 51.4714 9.51918C51.3412 9.3937 51.2761 9.24455 51.2761 9.07173C51.2761 8.89654 51.3412 8.7474 51.4714 8.62429C51.604 8.49882 51.7626 8.43608 51.9473 8.43608C52.1319 8.43608 52.2894 8.49882 52.4196 8.62429C52.5521 8.7474 52.6184 8.89654 52.6184 9.07173C52.6184 9.24455 52.5521 9.3937 52.4196 9.51918C52.2894 9.64228 52.1319 9.70384 51.9473 9.70384ZM54.9631 12.7614V16H53.9013V10.5455H54.9205V11.4332H54.9879C55.1134 11.1444 55.3099 10.9124 55.5774 10.7372C55.8473 10.562 56.187 10.4744 56.5966 10.4744C56.9683 10.4744 57.2938 10.5526 57.5732 10.7088C57.8525 10.8627 58.0691 11.0923 58.223 11.3977C58.3769 11.7031 58.4538 12.0807 58.4538 12.5305V16H57.392V12.6584C57.392 12.263 57.2891 11.9541 57.0831 11.7315C56.8771 11.5066 56.5942 11.3942 56.2344 11.3942C55.9882 11.3942 55.7692 11.4474 55.5774 11.554C55.388 11.6605 55.2377 11.8168 55.1264 12.0227C55.0175 12.2263 54.9631 12.4725 54.9631 12.7614ZM61.9197 16.1065C61.4794 16.1065 61.0864 15.9941 60.7408 15.7692C60.3975 15.5419 60.1276 15.2187 59.9311 14.7997C59.737 14.3783 59.6399 13.8729 59.6399 13.2834C59.6399 12.6939 59.7382 12.1896 59.9347 11.7706C60.1335 11.3516 60.4058 11.0308 60.7514 10.8082C61.0971 10.5857 61.4889 10.4744 61.9268 10.4744C62.2654 10.4744 62.5376 10.5312 62.7436 10.6449C62.9519 10.7562 63.1129 10.8864 63.2266 11.0355C63.3426 11.1847 63.4325 11.3161 63.4964 11.4297H63.5604V8.72727H64.6222V16H63.5852V15.1513H63.4964C63.4325 15.2673 63.3402 15.3999 63.2195 15.549C63.1011 15.6982 62.9377 15.8284 62.7294 15.9396C62.5211 16.0509 62.2512 16.1065 61.9197 16.1065ZM62.1541 15.201C62.4595 15.201 62.7176 15.1205 62.9283 14.9595C63.1413 14.7962 63.3023 14.5701 63.4112 14.2812C63.5225 13.9924 63.5781 13.6562 63.5781 13.2727C63.5781 12.8939 63.5237 12.5625 63.4148 12.2784C63.3059 11.9943 63.1461 11.773 62.9354 11.6143C62.7247 11.4557 62.4643 11.3764 62.1541 11.3764C61.8345 11.3764 61.5682 11.4593 61.3551 11.625C61.142 11.7907 60.9811 12.0168 60.8722 12.3033C60.7656 12.5897 60.7124 12.9129 60.7124 13.2727C60.7124 13.6373 60.7668 13.9652 60.8757 14.2564C60.9846 14.5476 61.1456 14.7784 61.3587 14.9489C61.5741 15.117 61.8393 15.201 62.1541 15.201Z" fill="white"/>
<path d="M7.5 10C8.23333 7.33333 10.0667 6 13 6C17.4 6 17.95 9 20.15 9.5C21.6167 9.83333 22.9 9.33333 24 8C23.2667 10.6667 21.4333 12 18.5 12C14.1 12 13.55 9 11.35 8.5C9.88333 8.16667 8.6 8.66667 7.5 10ZM2 16C2.73333 13.3333 4.56667 12 7.5 12C11.9 12 12.45 15 14.65 15.5C16.1167 15.8333 17.4 15.3333 18.5 14C17.7667 16.6667 15.9333 18 13 18C8.6 18 8.05 15 5.85 14.5C4.38333 14.1667 3.1 14.6667 2 16Z" fill="#38BDF8"/>
</svg>
